<svg preserveAspectRatio="none" width="100%" height="100%" overflow="visible" style="display: block;" viewBox="0 0 20.3198 22.0001" fill="none" xmlns="http://www.w3.org/2000/svg">
<g id="Vector">
<path d="M0.882221 4.20237C3.14513 1.63183 6.45861 0 10.1584 0C13.8582 0 17.1716 1.63183 19.4345 4.20237C19.7995 4.61691 19.7593 5.24879 19.3447 5.61373C18.9302 5.97866 18.2983 5.93844 17.9334 5.5239C16.0317 3.36377 13.2563 2 10.1584 2C7.06051 2 4.28502 3.36377 2.3834 5.5239C2.01847 5.93844 1.38659 5.97866 0.972046 5.61373C0.557506 5.24879 0.51729 4.61691 0.882221 4.20237Z" fill="var(--fill-0, #C8CCE5)"/>
<path d="M0 13.2187C0 7.60518 4.54875 3.05469 10.1599 3.05469C15.7711 3.05469 20.3198 7.60518 20.3198 13.2187C20.3198 15.4579 18.5049 17.2733 16.2662 17.2733C14.0275 17.2733 12.2126 15.4579 12.2126 13.2187C12.2126 12.0836 11.2926 11.164 10.1589 11.164C9.02523 11.164 8.10526 12.0836 8.10526 13.2187C8.10526 16.1428 9.64266 18.7083 11.9568 20.1514C12.4254 20.4437 12.5684 21.0605 12.2761 21.5291C11.9839 21.9977 11.3671 22.1407 10.8984 21.8485C8.0237 20.0557 6.10526 16.8621 6.10526 13.2187C6.10526 10.9794 7.92023 9.16402 10.1589 9.16402C12.3976 9.16402 14.2126 10.9794 14.2126 13.2187C14.2126 14.3538 15.1325 15.2733 16.2662 15.2733C17.3999 15.2733 18.3198 14.3538 18.3198 13.2187C18.3198 8.70903 14.6658 5.05469 10.1599 5.05469C5.65404 5.05469 2 8.70903 2 13.2187C2 14.272 2.11785 15.2988 2.33522 16.2903C2.45349 16.8298 2.11203 17.363 1.57256 17.4813C1.03309 17.5996 0.499881 17.2581 0.381612 16.7186C0.134672 15.5922 0 14.4218 0 13.2187Z" fill="var(--fill-0, #C8CCE5)"/>
<path d="M11.1602 13.2188C11.1602 12.6665 10.7124 12.2188 10.1602 12.2188C9.60787 12.2188 9.16016 12.6665 9.16016 13.2188C9.16016 17.145 12.3414 20.3281 16.2664 20.3281C16.3831 20.3281 16.519 20.319 16.5998 20.3135L16.6508 20.3102C17.2022 20.2796 17.6244 19.8078 17.5938 19.2563C17.5631 18.7049 17.0913 18.2827 16.5398 18.3133C16.4774 18.3168 16.4335 18.3198 16.3988 18.3222C16.3444 18.3259 16.3119 18.3281 16.2664 18.3281C13.4468 18.3281 11.1602 16.0413 11.1602 13.2188Z" fill="var(--fill-0, #C8CCE5)"/>
</g>
</svg>
