<svg preserveAspectRatio="none" width="100%" height="100%" overflow="visible" style="display: block;" viewBox="0 0 45 24.2308" fill="none" xmlns="http://www.w3.org/2000/svg">
<g id="logo">
<g id="Vector">
<path d="M31.8721 2.1456V3.02517H38.1275C38.5411 3.02517 39.169 3.02517 39.5847 3.53291C40.0005 4.03666 40.0004 4.79362 40.0004 5.30137V12.8723C40.0004 13.3747 40.0005 14.1357 39.5847 14.6381C39.169 15.1432 38.5422 15.1432 38.1275 15.1432H35.1065C34.5852 15.1432 33.9066 15.1432 33.6471 14.4475C33.3864 13.7558 33.7505 13.1242 34.0639 12.6191L38.1275 6.06099H31.8721L29.3756 10.0977C28.9577 10.7733 28.5947 11.3584 28.5947 12.114C28.5947 12.8723 28.9291 13.4187 29.3756 14.1357L30.0025 15.1432C30.6227 16.152 31.2496 17.1635 32.0832 17.6672C32.9179 18.171 33.9055 18.171 35.2615 18.171H37.9714C39.5319 18.171 41.8789 18.171 43.4383 16.2799C45 14.3849 45 11.6102 45 10.5974V7.56958C45 6.55941 45 3.78346 43.4383 1.89239C41.8778 -3.9389e-07 39.5308 0 37.9714 0H33.646C33.2303 0 32.709 5.58011e-07 32.2944 0.502418C31.8721 1.01017 31.8721 1.63919 31.8721 2.1456Z" fill="var(--fill-0, #E31A1A)"/>
<path d="M24.3736 6.0611H30.6214L23.1243 18.1751H16.8743L24.3736 6.0611Z" fill="var(--fill-0, #E31A1A)"/>
<path d="M0 8.20004C0 7.69763 -7.51047e-07 7.06594 0.416811 6.56086C0.834723 6.0611 1.35272 6.0611 1.77173 6.0611H12.2393C13.592 6.0611 14.584 6.0611 15.4155 6.56086C16.2491 7.06727 16.8737 8.07744 17.5017 9.08494L18.1242 10.0978C18.5674 10.8134 18.9061 11.3585 18.9061 12.1141C18.9061 12.8724 18.5443 13.4574 18.1242 14.1358L15.6233 18.1751H9.37223L13.4348 11.6104C13.7493 11.1079 14.1133 10.4763 13.8538 9.77926C13.5909 9.08494 12.9157 9.08494 12.3922 9.08494H7.50042V24.2308H2.50087V9.08494H0.00109916V8.20004" fill="var(--fill-0, #E31A1A)"/>
</g>
</g>
</svg>
