<svg preserveAspectRatio="none" width="100%" height="100%" overflow="visible" style="display: block;" viewBox="0 0 14.6667 13.3333" fill="none" xmlns="http://www.w3.org/2000/svg">
<g id="Vector">
<path d="M6.44444 0C2.86179 0 0 3.00871 0 6.66667C0 10.3246 2.86179 13.3333 6.44444 13.3333C7.62222 13.3333 8.72699 13.0059 9.67663 12.4355C9.99225 12.2459 10.0944 11.8363 9.90481 11.5207C9.71522 11.2051 9.30565 11.1029 8.99003 11.2925C8.24 11.743 7.37144 12 6.44444 12C3.64515 12 1.33333 9.63612 1.33333 6.66667C1.33333 3.69721 3.64515 1.33333 6.44444 1.33333C7.37144 1.33333 8.24 1.59028 8.99003 2.04084C9.30565 2.23044 9.71522 2.12828 9.90481 1.81266C10.0944 1.49704 9.99225 1.08748 9.67663 0.897879C8.72699 0.327415 7.62222 0 6.44444 0Z" fill="var(--fill-0, #1C3A73)"/>
<path d="M11.8047 3.5286C11.5444 3.26825 11.1223 3.26825 10.8619 3.5286C10.6016 3.78895 10.6016 4.21105 10.8619 4.4714L12.3905 6H5.33333C4.96514 6 4.66667 6.29848 4.66667 6.66667C4.66667 7.03486 4.96514 7.33333 5.33333 7.33333H12.3905L10.8619 8.86193C10.6016 9.12228 10.6016 9.54439 10.8619 9.80474C11.1223 10.0651 11.5444 10.0651 11.8047 9.80474L14.4714 7.13807C14.7318 6.87772 14.7318 6.45561 14.4714 6.19526L11.8047 3.5286Z" fill="var(--fill-0, #1C3A73)"/>
</g>
</svg>
