<svg preserveAspectRatio="none" width="100%" height="100%" overflow="visible" style="display: block;" viewBox="0 0 64 64" fill="none" xmlns="http://www.w3.org/2000/svg">
<g id="Map">
<g id="Vector">
<path d="M6.49671 13.7237C5.33333 15.048 5.33333 17.3185 5.33333 21.8594V46.9082C5.33333 50.1241 5.33333 51.7321 6.17226 52.9427C7.01118 54.1532 8.47789 54.6617 11.4113 55.6787L14.8625 56.8752C16.7316 57.5232 18.1699 58.0218 19.3769 58.3429C20.1643 58.5523 20.8889 57.9343 20.8889 57.1195V16.7191C20.8889 16.0553 20.3991 15.4951 19.7556 15.3319C18.7177 15.0686 17.47 14.6361 15.76 14.0432C11.618 12.6072 9.54704 11.8893 7.97124 12.6184C7.41177 12.8773 6.90976 13.2536 6.49671 13.7237Z" fill="#BCC6D7"/>
<path d="M33.6544 9.28134L29.5584 12.1214C28.0766 13.1488 26.9907 13.9017 26.0633 14.4386C25.6239 14.693 25.3333 15.1532 25.3333 15.661V55.7862C25.3333 56.7744 26.3573 57.3914 27.1898 56.8589C28.0833 56.2873 29.1064 55.5779 30.3456 54.7187L34.4416 51.8786C35.9233 50.8513 37.0093 50.0983 37.9367 49.5614C38.3761 49.307 38.6667 48.8468 38.6667 48.339V8.21382C38.6667 7.22557 37.6427 6.60856 36.8102 7.1411C35.9167 7.71268 34.8936 8.42209 33.6544 9.28134Z" fill="#BCC6D7"/>
<path d="M52.5887 8.32128L49.1375 7.12481C47.2682 6.47674 45.8302 5.97821 44.6231 5.65712C43.8357 5.44767 43.1111 6.06571 43.1111 6.8805V47.2809C43.1111 47.9447 43.6009 48.5049 44.2444 48.6681C45.2823 48.9314 46.53 49.364 48.24 49.9568C52.382 51.3927 54.453 52.1107 56.0288 51.3816C56.5882 51.1227 57.0902 50.7464 57.5033 50.2763C58.6667 48.952 58.6667 46.6815 58.6667 42.1406V17.0918C58.6667 13.8759 58.6667 12.2679 57.8277 11.0573C56.9888 9.84674 55.5221 9.33826 52.5887 8.32128Z" fill="#BCC6D7"/>
</g>
</g>
</svg>
